<mxfile host="app.diagrams.net" agent="Mozilla/5.0 (Windows NT 10.0; Win64; x64) AppleWebKit/537.36 (KHTML, like Gecko) Chrome/128.0.0.0 Safari/537.36" version="24.7.14">
  <diagram name="Page-1" id="Sb_cvZZXBoTCdczMiBcu">
    <mxGraphModel dx="2074" dy="1132" grid="0" gridSize="10" guides="1" tooltips="1" connect="1" arrows="1" fold="1" page="0" pageScale="1" pageWidth="827" pageHeight="1169" math="0" shadow="0">
      <root>
        <mxCell id="0" />
        <mxCell id="1" parent="0" />
        <mxCell id="YjClcBc1erh6RCy8JhAW-1" value="Monitoring" style="whiteSpace=wrap;strokeWidth=2;" vertex="1" parent="1">
          <mxGeometry x="80" y="860" width="534" height="99" as="geometry" />
        </mxCell>
        <mxCell id="YjClcBc1erh6RCy8JhAW-2" value="Visualization" style="whiteSpace=wrap;strokeWidth=2;" vertex="1" parent="1">
          <mxGeometry x="70" y="711" width="504" height="99" as="geometry" />
        </mxCell>
        <mxCell id="YjClcBc1erh6RCy8JhAW-3" value="Analytics &amp; ML" style="whiteSpace=wrap;strokeWidth=2;" vertex="1" parent="1">
          <mxGeometry x="20" y="562" width="547" height="99" as="geometry" />
        </mxCell>
        <mxCell id="YjClcBc1erh6RCy8JhAW-4" value="Data Processing" style="whiteSpace=wrap;strokeWidth=2;" vertex="1" parent="1">
          <mxGeometry x="80" y="390" width="474" height="99" as="geometry" />
        </mxCell>
        <mxCell id="YjClcBc1erh6RCy8JhAW-5" value="Data Storage" style="whiteSpace=wrap;strokeWidth=2;" vertex="1" parent="1">
          <mxGeometry x="75" y="241" width="487" height="99" as="geometry" />
        </mxCell>
        <mxCell id="YjClcBc1erh6RCy8JhAW-6" value="User Interface" style="whiteSpace=wrap;strokeWidth=2;" vertex="1" parent="1">
          <mxGeometry x="293" y="20" width="162" height="49" as="geometry" />
        </mxCell>
        <mxCell id="YjClcBc1erh6RCy8JhAW-7" value="Data Ingestion Service" style="whiteSpace=wrap;strokeWidth=2;" vertex="1" parent="1">
          <mxGeometry x="264" y="142" width="219" height="49" as="geometry" />
        </mxCell>
        <mxCell id="YjClcBc1erh6RCy8JhAW-8" value="Data Lake" style="whiteSpace=wrap;strokeWidth=2;" vertex="1" parent="1">
          <mxGeometry x="110" y="266" width="131" height="49" as="geometry" />
        </mxCell>
        <mxCell id="YjClcBc1erh6RCy8JhAW-9" value="Data Warehouse" style="whiteSpace=wrap;strokeWidth=2;" vertex="1" parent="1">
          <mxGeometry x="352" y="266" width="175" height="49" as="geometry" />
        </mxCell>
        <mxCell id="YjClcBc1erh6RCy8JhAW-10" value="ETL Jobs" style="whiteSpace=wrap;strokeWidth=2;" vertex="1" parent="1">
          <mxGeometry x="115" y="415" width="122" height="49" as="geometry" />
        </mxCell>
        <mxCell id="YjClcBc1erh6RCy8JhAW-11" value="Data Cleaning" style="whiteSpace=wrap;strokeWidth=2;" vertex="1" parent="1">
          <mxGeometry x="360" y="415" width="159" height="49" as="geometry" />
        </mxCell>
        <mxCell id="YjClcBc1erh6RCy8JhAW-12" value="Exploratory Data Analysis" style="whiteSpace=wrap;strokeWidth=2;" vertex="1" parent="1">
          <mxGeometry x="55" y="587" width="241" height="49" as="geometry" />
        </mxCell>
        <mxCell id="YjClcBc1erh6RCy8JhAW-13" value="Machine Learning" style="whiteSpace=wrap;strokeWidth=2;" vertex="1" parent="1">
          <mxGeometry x="346" y="587" width="186" height="49" as="geometry" />
        </mxCell>
        <mxCell id="YjClcBc1erh6RCy8JhAW-14" value="Dashboards" style="whiteSpace=wrap;strokeWidth=2;" vertex="1" parent="1">
          <mxGeometry x="105" y="736" width="141" height="49" as="geometry" />
        </mxCell>
        <mxCell id="YjClcBc1erh6RCy8JhAW-15" value="Automated Reports" style="whiteSpace=wrap;strokeWidth=2;" vertex="1" parent="1">
          <mxGeometry x="340" y="736" width="199" height="49" as="geometry" />
        </mxCell>
        <mxCell id="YjClcBc1erh6RCy8JhAW-16" value="Performance Monitoring" style="whiteSpace=wrap;strokeWidth=2;" vertex="1" parent="1">
          <mxGeometry x="324" y="885" width="231" height="49" as="geometry" />
        </mxCell>
        <mxCell id="YjClcBc1erh6RCy8JhAW-17" value="Upload CSV" style="curved=1;startArrow=none;endArrow=block;exitX=0.5;exitY=1;entryX=0.5;entryY=0;rounded=0;" edge="1" parent="1" source="YjClcBc1erh6RCy8JhAW-6" target="YjClcBc1erh6RCy8JhAW-7">
          <mxGeometry relative="1" as="geometry">
            <Array as="points" />
          </mxGeometry>
        </mxCell>
        <mxCell id="YjClcBc1erh6RCy8JhAW-18" value="" style="curved=1;startArrow=none;endArrow=block;exitX=0.05;exitY=1;entryX=0.5;entryY=0;rounded=0;" edge="1" parent="1" source="YjClcBc1erh6RCy8JhAW-7" target="YjClcBc1erh6RCy8JhAW-8">
          <mxGeometry relative="1" as="geometry">
            <Array as="points">
              <mxPoint x="176" y="216" />
            </Array>
          </mxGeometry>
        </mxCell>
        <mxCell id="YjClcBc1erh6RCy8JhAW-19" value="" style="curved=1;startArrow=none;endArrow=block;exitX=0.65;exitY=1;entryX=0.5;entryY=0;rounded=0;" edge="1" parent="1" source="YjClcBc1erh6RCy8JhAW-7" target="YjClcBc1erh6RCy8JhAW-9">
          <mxGeometry relative="1" as="geometry">
            <Array as="points">
              <mxPoint x="439" y="216" />
            </Array>
          </mxGeometry>
        </mxCell>
        <mxCell id="YjClcBc1erh6RCy8JhAW-20" value="" style="curved=1;startArrow=none;endArrow=block;exitX=0.5;exitY=1;entryX=0.5;entryY=0;rounded=0;" edge="1" parent="1" source="YjClcBc1erh6RCy8JhAW-8" target="YjClcBc1erh6RCy8JhAW-10">
          <mxGeometry relative="1" as="geometry">
            <Array as="points" />
          </mxGeometry>
        </mxCell>
        <mxCell id="YjClcBc1erh6RCy8JhAW-21" value="" style="curved=1;startArrow=none;endArrow=block;exitX=0.5;exitY=1;entryX=0.5;entryY=0;rounded=0;" edge="1" parent="1" source="YjClcBc1erh6RCy8JhAW-9" target="YjClcBc1erh6RCy8JhAW-11">
          <mxGeometry relative="1" as="geometry">
            <Array as="points" />
          </mxGeometry>
        </mxCell>
        <mxCell id="YjClcBc1erh6RCy8JhAW-22" value="" style="curved=1;startArrow=none;endArrow=block;exitX=0.5;exitY=1;entryX=0.5;entryY=0;rounded=0;" edge="1" parent="1" source="YjClcBc1erh6RCy8JhAW-10" target="YjClcBc1erh6RCy8JhAW-12">
          <mxGeometry relative="1" as="geometry">
            <Array as="points" />
          </mxGeometry>
        </mxCell>
        <mxCell id="YjClcBc1erh6RCy8JhAW-23" value="" style="curved=1;startArrow=none;endArrow=block;exitX=0.5;exitY=1;entryX=0.5;entryY=0;rounded=0;" edge="1" parent="1" source="YjClcBc1erh6RCy8JhAW-11" target="YjClcBc1erh6RCy8JhAW-13">
          <mxGeometry relative="1" as="geometry">
            <Array as="points" />
          </mxGeometry>
        </mxCell>
        <mxCell id="YjClcBc1erh6RCy8JhAW-24" value="" style="curved=1;startArrow=none;endArrow=block;exitX=0.5;exitY=1;entryX=0.5;entryY=0;rounded=0;" edge="1" parent="1" source="YjClcBc1erh6RCy8JhAW-12" target="YjClcBc1erh6RCy8JhAW-14">
          <mxGeometry relative="1" as="geometry">
            <Array as="points" />
          </mxGeometry>
        </mxCell>
        <mxCell id="YjClcBc1erh6RCy8JhAW-25" value="" style="curved=1;startArrow=none;endArrow=block;exitX=0.5;exitY=1;entryX=0.5;entryY=0;rounded=0;" edge="1" parent="1" source="YjClcBc1erh6RCy8JhAW-13" target="YjClcBc1erh6RCy8JhAW-15">
          <mxGeometry relative="1" as="geometry">
            <Array as="points" />
          </mxGeometry>
        </mxCell>
        <mxCell id="YjClcBc1erh6RCy8JhAW-26" value="" style="curved=1;startArrow=none;endArrow=block;exitX=0.5;exitY=1;entryX=0;entryY=0.06;rounded=0;" edge="1" parent="1" source="YjClcBc1erh6RCy8JhAW-14" target="YjClcBc1erh6RCy8JhAW-16">
          <mxGeometry relative="1" as="geometry">
            <Array as="points">
              <mxPoint x="176" y="860" />
            </Array>
          </mxGeometry>
        </mxCell>
        <mxCell id="YjClcBc1erh6RCy8JhAW-27" value="" style="curved=1;startArrow=none;endArrow=block;exitX=0.5;exitY=1;entryX=0.5;entryY=0;rounded=0;" edge="1" parent="1" source="YjClcBc1erh6RCy8JhAW-15" target="YjClcBc1erh6RCy8JhAW-16">
          <mxGeometry relative="1" as="geometry">
            <Array as="points" />
          </mxGeometry>
        </mxCell>
        <mxCell id="YjClcBc1erh6RCy8JhAW-28" value="Feedback Loop" style="curved=1;startArrow=none;endArrow=block;exitX=0.83;exitY=0;entryX=1;entryY=1;rounded=0;" edge="1" parent="1" source="YjClcBc1erh6RCy8JhAW-16" target="YjClcBc1erh6RCy8JhAW-7">
          <mxGeometry relative="1" as="geometry">
            <Array as="points">
              <mxPoint x="594" y="860" />
              <mxPoint x="594" y="216" />
            </Array>
          </mxGeometry>
        </mxCell>
      </root>
    </mxGraphModel>
  </diagram>
</mxfile>
